<?xml version="1.0" encoding="utf-8"?>
<!-- Generator: Adobe Illustrator 19.2.1, SVG Export Plug-In . SVG Version: 6.00 Build 0)  -->
<svg version="1.1" id="Layer_1" xmlns="http://www.w3.org/2000/svg" xmlns:xlink="http://www.w3.org/1999/xlink" x="0px" y="0px"
	 viewBox="0 0 24 24" style="enable-background:new 0 0 24 24;" xml:space="preserve">
<style type="text/css">
	.st0{fill:none;}
</style>
<path class="st0" d="M0,0h24v24H0V0z M0,0h24v24H0V0z M0.8,0.8h22.5v22.5H0.8V0.8z"/>
<g>
	<path d="M2.7,19.4h4.7l-2.3,2.3L2.7,19.4z"/>
	<rect x="4.2" y="2.3" width="1.7" height="18"/>
</g>
<g>
	<path d="M12.9,3.3L12.9,3.3v1.1h1h7.8v6.2H9.6v-6V3.4V3.3H12.9 M12.9,2.3H9.6c-0.6,0-1,0.4-1,1v0.1v1.2v7h14.1V3.4h-8.8V3.3
		C13.9,2.7,13.4,2.3,12.9,2.3L12.9,2.3z"/>
</g>
<g>
	<path d="M12.9,13.4L12.9,13.4v1.1h1h7.8v6.2H9.6v-6v-1.2v-0.1H12.9 M12.9,12.4H9.6c-0.6,0-1,0.4-1,1v0.1v1.2v7h14.1v-8.2h-8.8v-0.1
		C13.9,12.8,13.4,12.4,12.9,12.4L12.9,12.4z"/>
</g>
</svg>
