<?xml version="1.0" encoding="utf-8"?>
<!-- Generator: Adobe Illustrator 19.2.1, SVG Export Plug-In . SVG Version: 6.00 Build 0)  -->
<svg fill="#5a70e0" version="1.1" id="Layer_1" xmlns="http://www.w3.org/2000/svg" xmlns:xlink="http://www.w3.org/1999/xlink" x="0px" y="0px"
	 viewBox="0 0 24 24" style="enable-background:new 0 0 24 24;" xml:space="preserve">
<style type="text/css">
	.st0{fill:none;}
</style>
<path class="st0" d="M0,0h24v24H0V0z M0,0h24v24H0V0z M0.8,0.8h22.5v22.5H0.8V0.8z"/>
<path d="M16.1,4.7c0,0.2,0,0.2,0,1c0,2.1-0.4,3.2-1.2,4.2c-0.7,0.9-1.6,1.5-3.1,2.2c-0.3-0.6-0.5-0.9-0.9-1.4c1-0.3,1.5-0.6,2.1-1
	c1.2-1,1.6-2,1.6-4.3c0-0.4,0-0.5-0.1-0.7H16.1z M21,3.2c-0.2,0.2-0.2,0.2-0.5,0.8c-0.4,0.9-1.1,1.8-1.8,2.4c-0.5,0.4-0.9,0.7-1.4,1
	c-0.4-0.5-0.5-0.7-1.1-1.1C17,6,17.4,5.7,17.9,5.3c0.5-0.5,0.9-0.9,1.1-1.5h-6.3c-0.8,0-1.1,0-1.6,0.1V2.3c0.5,0.1,0.8,0.1,1.7,0.1
	H19c0.7,0,0.8,0,1.2-0.1L21,3.2z"/>
<path d="M11.4,20.1c1-0.1,2.5-0.4,3.5-0.9c1.5-0.6,2.6-1.6,3.6-2.9c0.5-0.8,0.9-1.4,1.2-2.4c0.5,0.6,0.7,0.7,1.3,1.2
	c-1,2.2-2.2,3.6-3.8,4.7c-1.2,0.8-2.7,1.4-4.6,1.8c-0.5,0.1-0.5,0.1-0.8,0.2L11.4,20.1z M12.4,12.6c1.4,0.9,2.2,1.4,3.1,2.3l-1,1.3
	c-1-1-1.9-1.8-3.1-2.4L12.4,12.6z"/>
<g>
	<path d="M2.7,19.4h4.7l-2.3,2.3L2.7,19.4z"/>
	<rect x="4.2" y="2.3" width="1.7" height="18"/>
</g>
</svg>
