<?xml version="1.0" encoding="utf-8"?>
<!-- Generator: Adobe Illustrator 19.2.1, SVG Export Plug-In . SVG Version: 6.00 Build 0)  -->
<svg version="1.1" id="Layer_1" xmlns="http://www.w3.org/2000/svg" xmlns:xlink="http://www.w3.org/1999/xlink" x="0px" y="0px"
	 viewBox="0 0 380 168" style="enable-background:new 0 0 380 168;" xml:space="preserve">
<g>
	<path d="M106.9,33.6c-5.6,3.6-8.2,5-14.5,7.8c-1.5-3.6-3-6.2-5.3-9.2c9.8-3.9,15.9-7.3,22.8-12.6c6-4.6,10.6-9.4,14.3-15.2H135
		c4.8,6.7,8.4,10.2,15.3,15c7.7,5.4,15,9.2,23.3,12.2c-2.5,3.9-3.7,6.4-5,10.2c-5.7-2.4-9.2-4.3-15.5-8.2v7.1
		c-2.4-0.3-4.7-0.4-8.2-0.4h-30.2c-2.6,0-5.3,0.1-7.8,0.4V33.6z M102,57c-4.6,0-7.7,0.2-10.7,0.5V47c3,0.4,6.4,0.5,10.7,0.5h56.5
		c4.4,0,7.6-0.2,10.6-0.5v10.5c-3-0.4-6.1-0.5-10.6-0.5h-31.2c-2.8,6.6-5.6,12-9.4,17.6c16-0.9,16-0.9,28.7-2.3
		c-2.9-3.2-4.4-4.8-9.5-10.1l9-4c9.7,9.8,13.6,14.3,20.9,24.2l-8.7,5.7c-3-4.4-3.9-5.7-5.4-7.9c-7.5,1-13,1.6-16.3,2
		c-9,0.8-26.9,2.4-30.5,2.7c-5.1,0.4-9.6,0.8-11.7,1.3l-1.5-11.1c2.4,0.2,4,0.3,5.3,0.3c0.6,0,3.4-0.1,8-0.4
		c4.4-6.7,7.3-12,9.7-18.1H102V57z M144.9,30.8c1.5,0,2.3,0,4-0.1c-8.3-5.7-13.5-10.4-18.9-17.6c-4.8,6.4-10.4,11.7-18.9,17.6
		c1.5,0.1,2.1,0.1,3.7,0.1H144.9z"/>
	<path d="M210.2,19.1c2.3,0.4,4.4,0.5,7.7,0.5h23.3c3.5,0,5.5-0.1,7.7-0.5v9.1c-2.1-0.3-3.9-0.4-7.7-0.4h-23.4c-3,0-5,0.1-7.6,0.5
		V19.1z M214,6.5c2.3,0.4,4.1,0.5,7.8,0.5h15.7c3.6,0,5.3-0.1,7.7-0.5v8.9c-2.5-0.3-4.3-0.4-7.7-0.4h-15.7c-3.3,0-5.5,0.1-7.8,0.4
		V6.5z M223.6,87.7H214c0.4-2.6,0.5-5.2,0.5-8.7V65.3c0-2.9-0.1-4.6-0.4-7.1c1.7,0.2,3,0.3,6.3,0.3h19.5c2.8,0,4.2-0.1,5.9-0.3
		c-0.3,2.1-0.4,3.8-0.4,7v13.3c0,3.4,0.1,5.6,0.5,7.9h-9.7v-2.8h-12.6L223.6,87.7L223.6,87.7z M214.1,32.4c1.9,0.2,3,0.3,6,0.3h19.2
		c3.1,0,3.9,0,5.8-0.3V41c-2.1-0.3-2.9-0.3-5.8-0.3h-19.2c-3,0-3.9,0-6,0.3L214.1,32.4L214.1,32.4z M214.1,45.2
		c1.6,0.2,2.8,0.3,6,0.3h19.2c3.1,0,3.9,0,5.8-0.3v8.6c-1.8-0.2-3-0.3-6-0.3H220c-2.9,0-4,0.1-5.9,0.3V45.2z M223.4,75.5h12.9v-8.8
		h-12.9V75.5z M265.4,15.1c0-5.1-0.1-7.4-0.6-10.9h11.3c-0.5,3.1-0.6,6-0.6,10.9v16.4h6.4c4.9,0,8-0.2,11-0.5v10.4
		c-3.5-0.4-6.7-0.5-11.1-0.5h-6.3V74c0,6.3,0.2,10,0.6,13.7h-11.3c0.5-3.6,0.6-7.1,0.6-13.7V40.9h-5.6c-4,0-7.9,0.2-11.1,0.5V31
		c2.9,0.4,6.2,0.5,11,0.5h5.7V15.1z"/>
</g>
<g>
	<path d="M7.2,138.2c0.1-1.5,0.2-2.6,0.2-5.5v-11.2c0-2.6,0-3.1-0.1-5c1.5,0.1,3.3,0.2,5.1,0.2h36.9c1.9,0,2.4-0.1,3.2-0.5l2.1,2
		c-0.7,1-0.7,1-1,3.4c-1.9,15.6-5.6,24.7-13.2,32.4c-5.2,5.3-11.6,9.4-19.2,12.2c-0.6-1.4-1-1.9-2.1-3.1c5.7-1.7,9.6-3.6,14.4-7.3
		c7.5-5.7,11.6-12.2,14.4-22.5c1.2-4.6,2-8.8,2.4-13.6l-39.7-0.1v12.9c0.1,4.4,0.1,4.4,0.2,5.6H7.2V138.2z"/>
	<path d="M66.2,137.5c1.8,0.3,2.4,0.3,6.9,0.3h42.5c4.4,0,5.1,0,6.9-0.3v3.8c-1.7-0.3-2.6-0.3-6.9-0.3H73.1c-4.3,0-5.1,0-6.9,0.3
		V137.5z"/>
	<path d="M181.4,121.8c-0.6,0.8-0.6,0.9-1.1,2.6c-1.9,6.8-5.6,14.7-9.6,20.6c-6.7,9.9-16,17.5-28.1,22.9c-0.8-1.3-1.1-1.7-2.3-2.6
		c10.4-4.2,18.1-9.9,24.9-18.3c5.5-6.8,9.7-15.1,12.1-24.1l-24.7,0.5c-4.2,6.8-9.9,13.1-16.7,18.1c-0.8-1.2-1.2-1.6-2.6-2.4
		c4.5-2.8,7.1-5.1,10.4-9c4.3-5,7.8-10.5,10.4-16.5c0.7-1.6,0.8-2.2,1-3.5l4,1.3c-0.7,0.9-0.7,0.9-1.7,2.9c-2,4.2-2.6,5.3-3.4,6.5
		c1.2-0.3,1.2-0.3,22.2-0.6c2.2,0,2.2,0,2.9-0.3L181.4,121.8z"/>
	<path d="M193.2,117.7c2.6,0.3,4,0.4,7.4,0.4h35.2c2.2,0,2.2,0,3.1-0.4l2.4,2.3c-0.3,0.5-0.4,0.6-0.7,1.5c0,0.1-0.1,0.3-0.1,0.6
		c-0.1,0.2-0.3,0.8-0.6,1.8c-2.3,8.3-5.7,15.8-9.5,21.1c-4,5.6-10.3,11.4-17,15.5c-3.9,2.4-7,3.8-12.6,5.8c-0.6-1.5-1-2-2.1-3.1
		c6.2-1.9,10.6-3.9,16-7.6c8-5.3,13.6-12,17.6-20.8c1.9-4.1,3.1-7.7,4.6-13.6h-36.4c-3,0-5.1,0.1-7.3,0.4V117.7z"/>
	<path d="M258.8,159.5v4.8h-3.6c0.1-1.5,0.2-2.8,0.2-4.8v-36.6c0-2.9,0-3.7-0.2-5.2c1.4,0.1,2.5,0.1,5.2,0.1h35.8
		c2.9,0,3.8,0,5.2-0.2c-0.2,1.6-0.2,2.3-0.2,5.3v36.5c0,1.8,0.1,3.7,0.2,5h-3.6v-4.9L258.8,159.5L258.8,159.5z M297.8,120.9h-39
		v35.8h39V120.9z"/>
	<path d="M316.5,137.5c1.8,0.3,2.4,0.3,6.9,0.3H366c4.4,0,5.1,0,6.9-0.3v3.8c-1.7-0.3-2.6-0.3-6.9-0.3h-42.6c-4.3,0-5.1,0-6.9,0.3
		V137.5z"/>
</g>
</svg>
